<mxfile host="app.diagrams.net" modified="2021-03-06T04:48:31.093Z" agent="5.0 (Windows NT 10.0; Win64; x64) AppleWebKit/537.36 (KHTML, like Gecko) Chrome/88.0.4324.190 Safari/537.36" etag="32u6Fu54NOrlLezAtd0I" version="14.4.3" type="github">
  <diagram id="GtJ7MxfATg_XP1rpg5L5" name="第 1 页">
    <mxGraphModel dx="981" dy="553" grid="1" gridSize="10" guides="1" tooltips="1" connect="1" arrows="1" fold="1" page="1" pageScale="1" pageWidth="827" pageHeight="1169" math="0" shadow="0">
      <root>
        <mxCell id="0" />
        <mxCell id="1" parent="0" />
        <mxCell id="XZQz7K7nDMC5S0IeOJKs-20" value="" style="rounded=1;whiteSpace=wrap;html=1;fillColor=none;" vertex="1" parent="1">
          <mxGeometry x="132.69" y="181.7" width="90" height="78.18" as="geometry" />
        </mxCell>
        <mxCell id="XZQz7K7nDMC5S0IeOJKs-21" value="" style="whiteSpace=wrap;html=1;aspect=fixed;" vertex="1" parent="1">
          <mxGeometry x="50" y="192.79348837209304" width="56" height="56" as="geometry" />
        </mxCell>
        <mxCell id="XZQz7K7nDMC5S0IeOJKs-22" value="输入" style="text;html=1;align=center;verticalAlign=middle;resizable=0;points=[];autosize=1;fontSize=10.5;" vertex="1" parent="1">
          <mxGeometry x="58" y="170" width="40" height="20" as="geometry" />
        </mxCell>
        <mxCell id="XZQz7K7nDMC5S0IeOJKs-23" value="" style="endArrow=classic;html=1;" edge="1" parent="1">
          <mxGeometry width="50" height="50" relative="1" as="geometry">
            <mxPoint x="110" y="220.28999999999996" as="sourcePoint" />
            <mxPoint x="130" y="220" as="targetPoint" />
          </mxGeometry>
        </mxCell>
        <mxCell id="XZQz7K7nDMC5S0IeOJKs-24" value="&lt;span style=&quot;font-size: 10.5px&quot;&gt;卷积&lt;/span&gt;" style="text;html=1;align=center;verticalAlign=middle;resizable=0;points=[];autosize=1;fontSize=10.5;" vertex="1" parent="1">
          <mxGeometry x="160" y="150" width="40" height="20" as="geometry" />
        </mxCell>
        <mxCell id="XZQz7K7nDMC5S0IeOJKs-25" value="" style="shape=partialRectangle;html=1;whiteSpace=wrap;connectable=0;overflow=hidden;fillColor=none;top=0;left=0;bottom=0;right=0;" vertex="1" parent="1">
          <mxGeometry x="240" y="150" width="17" height="17" as="geometry" />
        </mxCell>
        <mxCell id="XZQz7K7nDMC5S0IeOJKs-26" value="" style="shape=partialRectangle;html=1;whiteSpace=wrap;connectable=0;overflow=hidden;fillColor=none;top=0;left=0;bottom=0;right=0;" vertex="1" parent="1">
          <mxGeometry x="240" y="167" width="17" height="17" as="geometry" />
        </mxCell>
        <mxCell id="XZQz7K7nDMC5S0IeOJKs-27" value="" style="shape=partialRectangle;html=1;whiteSpace=wrap;connectable=0;overflow=hidden;fillColor=none;top=0;left=0;bottom=0;right=0;" vertex="1" parent="1">
          <mxGeometry x="240" y="184" width="17" height="17" as="geometry" />
        </mxCell>
        <mxCell id="XZQz7K7nDMC5S0IeOJKs-28" value="" style="shape=partialRectangle;html=1;whiteSpace=wrap;connectable=0;overflow=hidden;fillColor=none;top=0;left=0;bottom=0;right=0;" vertex="1" parent="1">
          <mxGeometry x="240" y="201" width="17" height="18" as="geometry" />
        </mxCell>
        <mxCell id="XZQz7K7nDMC5S0IeOJKs-29" value="" style="shape=partialRectangle;html=1;whiteSpace=wrap;connectable=0;overflow=hidden;fillColor=none;top=0;left=0;bottom=0;right=0;" vertex="1" parent="1">
          <mxGeometry x="240" y="219" width="17" height="17" as="geometry" />
        </mxCell>
        <mxCell id="XZQz7K7nDMC5S0IeOJKs-30" value="" style="shape=partialRectangle;html=1;whiteSpace=wrap;connectable=0;overflow=hidden;fillColor=none;top=0;left=0;bottom=0;right=0;" vertex="1" parent="1">
          <mxGeometry x="240" y="236" width="17" height="17" as="geometry" />
        </mxCell>
        <mxCell id="XZQz7K7nDMC5S0IeOJKs-31" value="" style="shape=partialRectangle;html=1;whiteSpace=wrap;connectable=0;overflow=hidden;fillColor=none;top=0;left=0;bottom=0;right=0;" vertex="1" parent="1">
          <mxGeometry x="240" y="253" width="17" height="17" as="geometry" />
        </mxCell>
        <mxCell id="XZQz7K7nDMC5S0IeOJKs-32" value="" style="endArrow=none;html=1;exitX=1;exitY=0;exitDx=0;exitDy=0;entryX=0;entryY=0;entryDx=10;entryDy=67.59921240919884;entryPerimeter=0;" edge="1" parent="1" source="XZQz7K7nDMC5S0IeOJKs-39" target="XZQz7K7nDMC5S0IeOJKs-44">
          <mxGeometry width="50" height="50" relative="1" as="geometry">
            <mxPoint x="240" y="270" as="sourcePoint" />
            <mxPoint x="250" y="180" as="targetPoint" />
          </mxGeometry>
        </mxCell>
        <mxCell id="XZQz7K7nDMC5S0IeOJKs-33" value="" style="whiteSpace=wrap;html=1;aspect=fixed;fillColor=#dae8fc;strokeColor=#6c8ebf;" vertex="1" parent="1">
          <mxGeometry x="140" y="201" width="23.71886172717495" height="23.71886172717495" as="geometry" />
        </mxCell>
        <mxCell id="XZQz7K7nDMC5S0IeOJKs-34" value="" style="whiteSpace=wrap;html=1;aspect=fixed;fillColor=#dae8fc;strokeColor=#6c8ebf;" vertex="1" parent="1">
          <mxGeometry x="142.39281458012385" y="203.87408614137325" width="23.71886172717495" height="23.71886172717495" as="geometry" />
        </mxCell>
        <mxCell id="XZQz7K7nDMC5S0IeOJKs-35" value="" style="whiteSpace=wrap;html=1;aspect=fixed;fillColor=#dae8fc;strokeColor=#6c8ebf;" vertex="1" parent="1">
          <mxGeometry x="145.28113827282505" y="206.03953432987083" width="23.71886172717495" height="23.71886172717495" as="geometry" />
        </mxCell>
        <mxCell id="XZQz7K7nDMC5S0IeOJKs-36" value="" style="group" vertex="1" connectable="0" parent="1">
          <mxGeometry x="190" y="210" width="20" height="27.94999999999998" as="geometry" />
        </mxCell>
        <mxCell id="XZQz7K7nDMC5S0IeOJKs-37" value="" style="whiteSpace=wrap;html=1;aspect=fixed;fillColor=#dae8fc;strokeColor=#6c8ebf;" vertex="1" parent="XZQz7K7nDMC5S0IeOJKs-36">
          <mxGeometry width="16.35783567391376" height="16.35783567391376" as="geometry" />
        </mxCell>
        <mxCell id="XZQz7K7nDMC5S0IeOJKs-38" value="" style="whiteSpace=wrap;html=1;aspect=fixed;fillColor=#dae8fc;strokeColor=#6c8ebf;" vertex="1" parent="XZQz7K7nDMC5S0IeOJKs-36">
          <mxGeometry x="1.6502169518095549" y="2.2766110519728455" width="16.35783567391376" height="16.35783567391376" as="geometry" />
        </mxCell>
        <mxCell id="XZQz7K7nDMC5S0IeOJKs-39" value="" style="whiteSpace=wrap;html=1;aspect=fixed;fillColor=#dae8fc;strokeColor=#6c8ebf;" vertex="1" parent="XZQz7K7nDMC5S0IeOJKs-36">
          <mxGeometry x="3.642164326086239" y="3.991898289693785" width="16.35783567391376" height="16.35783567391376" as="geometry" />
        </mxCell>
        <mxCell id="XZQz7K7nDMC5S0IeOJKs-43" value="" style="rounded=0;whiteSpace=wrap;html=1;" vertex="1" parent="XZQz7K7nDMC5S0IeOJKs-36">
          <mxGeometry x="3.64" y="3.99" width="6.36" height="16.01" as="geometry" />
        </mxCell>
        <mxCell id="XZQz7K7nDMC5S0IeOJKs-40" value="" style="endArrow=none;dashed=1;html=1;dashPattern=1 4;" edge="1" parent="1">
          <mxGeometry width="50" height="50" relative="1" as="geometry">
            <mxPoint x="174.5" y="229.76" as="sourcePoint" />
            <mxPoint x="185.5" y="229.88" as="targetPoint" />
          </mxGeometry>
        </mxCell>
        <mxCell id="XZQz7K7nDMC5S0IeOJKs-41" value="" style="endArrow=none;html=1;exitX=1;exitY=1;exitDx=0;exitDy=0;entryX=0;entryY=0;entryDx=10;entryDy=2.40078759080116;entryPerimeter=0;" edge="1" parent="1" source="XZQz7K7nDMC5S0IeOJKs-39" target="XZQz7K7nDMC5S0IeOJKs-44">
          <mxGeometry width="50" height="50" relative="1" as="geometry">
            <mxPoint x="240" y="250" as="sourcePoint" />
            <mxPoint x="240.60000000000014" y="270.3910000000002" as="targetPoint" />
          </mxGeometry>
        </mxCell>
        <mxCell id="XZQz7K7nDMC5S0IeOJKs-42" value="" style="rounded=0;whiteSpace=wrap;html=1;" vertex="1" parent="1">
          <mxGeometry x="146.86" y="206.04" width="10" height="23.96" as="geometry" />
        </mxCell>
        <mxCell id="XZQz7K7nDMC5S0IeOJKs-44" value="" style="html=1;whiteSpace=wrap;shape=isoCube2;backgroundOutline=1;isoAngle=15;direction=south;rotation=90;" vertex="1" parent="1">
          <mxGeometry x="222.69" y="206.04000000000002" width="70" height="10" as="geometry" />
        </mxCell>
        <mxCell id="XZQz7K7nDMC5S0IeOJKs-50" value="" style="html=1;whiteSpace=wrap;shape=isoCube2;backgroundOutline=1;isoAngle=15;direction=south;rotation=90;" vertex="1" parent="1">
          <mxGeometry x="240" y="206.04000000000002" width="70" height="10" as="geometry" />
        </mxCell>
        <mxCell id="XZQz7K7nDMC5S0IeOJKs-55" value="" style="html=1;whiteSpace=wrap;shape=isoCube2;backgroundOutline=1;isoAngle=15;direction=south;rotation=90;" vertex="1" parent="1">
          <mxGeometry x="257" y="206.04000000000002" width="70" height="10" as="geometry" />
        </mxCell>
        <mxCell id="XZQz7K7nDMC5S0IeOJKs-56" value="" style="html=1;whiteSpace=wrap;shape=isoCube2;backgroundOutline=1;isoAngle=15;direction=south;rotation=90;" vertex="1" parent="1">
          <mxGeometry x="292.69" y="206.04000000000002" width="70" height="10" as="geometry" />
        </mxCell>
        <mxCell id="XZQz7K7nDMC5S0IeOJKs-58" value="" style="endArrow=none;dashed=1;html=1;dashPattern=1 3;strokeWidth=2;" edge="1" parent="1">
          <mxGeometry width="50" height="50" relative="1" as="geometry">
            <mxPoint x="300" y="212.69000000000003" as="sourcePoint" />
            <mxPoint x="320" y="212.69000000000003" as="targetPoint" />
          </mxGeometry>
        </mxCell>
        <mxCell id="XZQz7K7nDMC5S0IeOJKs-68" value="" style="group" vertex="1" connectable="0" parent="1">
          <mxGeometry x="360" y="90" width="90" height="260.79" as="geometry" />
        </mxCell>
        <mxCell id="XZQz7K7nDMC5S0IeOJKs-59" value="" style="rounded=1;whiteSpace=wrap;html=1;fillColor=none;dashed=1;strokeColor=#FF6666;" vertex="1" parent="XZQz7K7nDMC5S0IeOJKs-68">
          <mxGeometry width="90" height="236.3409375" as="geometry" />
        </mxCell>
        <mxCell id="XZQz7K7nDMC5S0IeOJKs-60" value="" style="rounded=0;whiteSpace=wrap;html=1;strokeColor=#9673a6;strokeWidth=2;fillColor=#e1d5e7;" vertex="1" parent="XZQz7K7nDMC5S0IeOJKs-68">
          <mxGeometry x="6.428571428571429" y="16.299374999999994" width="77.14285714285715" height="16.299375" as="geometry" />
        </mxCell>
        <mxCell id="XZQz7K7nDMC5S0IeOJKs-61" value="" style="rounded=0;whiteSpace=wrap;html=1;strokeColor=#9673a6;strokeWidth=2;fillColor=#e1d5e7;" vertex="1" parent="XZQz7K7nDMC5S0IeOJKs-68">
          <mxGeometry x="6.428571428571429" y="48.89812499999999" width="77.14285714285715" height="16.299375" as="geometry" />
        </mxCell>
        <mxCell id="XZQz7K7nDMC5S0IeOJKs-62" value="" style="rounded=0;whiteSpace=wrap;html=1;strokeColor=#d6b656;strokeWidth=2;fillColor=#fff2cc;" vertex="1" parent="XZQz7K7nDMC5S0IeOJKs-68">
          <mxGeometry x="6.428571428571429" y="81.496875" width="77.14285714285715" height="16.299375" as="geometry" />
        </mxCell>
        <mxCell id="XZQz7K7nDMC5S0IeOJKs-63" value="" style="rounded=0;whiteSpace=wrap;html=1;strokeColor=#9673a6;strokeWidth=2;fillColor=#e1d5e7;" vertex="1" parent="XZQz7K7nDMC5S0IeOJKs-68">
          <mxGeometry x="6.428571428571429" y="114.095625" width="77.14285714285715" height="16.299375" as="geometry" />
        </mxCell>
        <mxCell id="XZQz7K7nDMC5S0IeOJKs-64" value="" style="rounded=0;whiteSpace=wrap;html=1;strokeColor=#9673a6;strokeWidth=2;fillColor=#e1d5e7;" vertex="1" parent="XZQz7K7nDMC5S0IeOJKs-68">
          <mxGeometry x="6.428571428571429" y="146.694375" width="77.14285714285715" height="16.299375" as="geometry" />
        </mxCell>
        <mxCell id="XZQz7K7nDMC5S0IeOJKs-65" value="" style="rounded=0;whiteSpace=wrap;html=1;strokeColor=#9673a6;strokeWidth=2;fillColor=#e1d5e7;" vertex="1" parent="XZQz7K7nDMC5S0IeOJKs-68">
          <mxGeometry x="6.428571428571429" y="179.29312500000003" width="77.14285714285715" height="16.299375" as="geometry" />
        </mxCell>
        <mxCell id="XZQz7K7nDMC5S0IeOJKs-66" value="" style="rounded=0;whiteSpace=wrap;html=1;strokeColor=#9673a6;strokeWidth=2;fillColor=#e1d5e7;" vertex="1" parent="XZQz7K7nDMC5S0IeOJKs-68">
          <mxGeometry x="6.428571428571429" y="211.891875" width="77.14285714285715" height="16.299375" as="geometry" />
        </mxCell>
        <mxCell id="XZQz7K7nDMC5S0IeOJKs-67" value="&lt;font style=&quot;font-size: 10.5px&quot;&gt;BLSTM&lt;/font&gt;" style="text;html=1;align=center;verticalAlign=middle;resizable=0;points=[];autosize=1;fontSize=10.5;" vertex="1" parent="XZQz7K7nDMC5S0IeOJKs-68">
          <mxGeometry x="15.714285714285715" y="244.490625" width="60" height="20" as="geometry" />
        </mxCell>
        <mxCell id="XZQz7K7nDMC5S0IeOJKs-69" value="" style="endArrow=classic;html=1;" edge="1" parent="1">
          <mxGeometry width="50" height="50" relative="1" as="geometry">
            <mxPoint x="337" y="211.03999999999996" as="sourcePoint" />
            <mxPoint x="357" y="210.75" as="targetPoint" />
          </mxGeometry>
        </mxCell>
        <mxCell id="XZQz7K7nDMC5S0IeOJKs-70" value="" style="endArrow=classic;html=1;" edge="1" parent="1">
          <mxGeometry width="50" height="50" relative="1" as="geometry">
            <mxPoint x="460" y="209.94999999999996" as="sourcePoint" />
            <mxPoint x="480" y="209.66" as="targetPoint" />
          </mxGeometry>
        </mxCell>
        <mxCell id="XZQz7K7nDMC5S0IeOJKs-71" value="" style="shape=table;html=1;whiteSpace=wrap;startSize=0;container=1;collapsible=0;childLayout=tableLayout;fontSize=10.5;" vertex="1" parent="1">
          <mxGeometry x="490" y="200" width="200" height="20" as="geometry" />
        </mxCell>
        <mxCell id="XZQz7K7nDMC5S0IeOJKs-72" value="" style="shape=partialRectangle;html=1;whiteSpace=wrap;collapsible=0;dropTarget=0;pointerEvents=0;fillColor=none;top=0;left=0;bottom=0;right=0;points=[[0,0.5],[1,0.5]];portConstraint=eastwest;fontSize=10.5;" vertex="1" parent="XZQz7K7nDMC5S0IeOJKs-71">
          <mxGeometry width="200" height="20" as="geometry" />
        </mxCell>
        <mxCell id="XZQz7K7nDMC5S0IeOJKs-73" value="-" style="shape=partialRectangle;html=1;whiteSpace=wrap;connectable=0;overflow=hidden;fillColor=none;top=0;left=0;bottom=0;right=0;fontSize=10.5;" vertex="1" parent="XZQz7K7nDMC5S0IeOJKs-72">
          <mxGeometry width="20" height="20" as="geometry" />
        </mxCell>
        <mxCell id="XZQz7K7nDMC5S0IeOJKs-74" value="s" style="shape=partialRectangle;html=1;whiteSpace=wrap;connectable=0;overflow=hidden;fillColor=none;top=0;left=0;bottom=0;right=0;fontSize=10.5;" vertex="1" parent="XZQz7K7nDMC5S0IeOJKs-72">
          <mxGeometry x="20" width="20" height="20" as="geometry" />
        </mxCell>
        <mxCell id="XZQz7K7nDMC5S0IeOJKs-75" value="-" style="shape=partialRectangle;html=1;whiteSpace=wrap;connectable=0;overflow=hidden;fillColor=none;top=0;left=0;bottom=0;right=0;fontSize=10.5;" vertex="1" parent="XZQz7K7nDMC5S0IeOJKs-72">
          <mxGeometry x="40" width="20" height="20" as="geometry" />
        </mxCell>
        <mxCell id="XZQz7K7nDMC5S0IeOJKs-76" value="t" style="shape=partialRectangle;html=1;whiteSpace=wrap;connectable=0;overflow=hidden;fillColor=none;top=0;left=0;bottom=0;right=0;fontSize=10.5;" vertex="1" parent="XZQz7K7nDMC5S0IeOJKs-72">
          <mxGeometry x="60" width="20" height="20" as="geometry" />
        </mxCell>
        <mxCell id="XZQz7K7nDMC5S0IeOJKs-77" value="-" style="shape=partialRectangle;html=1;whiteSpace=wrap;connectable=0;overflow=hidden;fillColor=none;top=0;left=0;bottom=0;right=0;fontSize=10.5;" vertex="1" parent="XZQz7K7nDMC5S0IeOJKs-72">
          <mxGeometry x="80" width="20" height="20" as="geometry" />
        </mxCell>
        <mxCell id="XZQz7K7nDMC5S0IeOJKs-78" value="a" style="shape=partialRectangle;html=1;whiteSpace=wrap;connectable=0;overflow=hidden;fillColor=none;top=0;left=0;bottom=0;right=0;fontSize=10.5;" vertex="1" parent="XZQz7K7nDMC5S0IeOJKs-72">
          <mxGeometry x="100" width="20" height="20" as="geometry" />
        </mxCell>
        <mxCell id="XZQz7K7nDMC5S0IeOJKs-79" value="a" style="shape=partialRectangle;html=1;whiteSpace=wrap;connectable=0;overflow=hidden;fillColor=none;top=0;left=0;bottom=0;right=0;fontSize=10.5;" vertex="1" parent="XZQz7K7nDMC5S0IeOJKs-72">
          <mxGeometry x="120" width="20" height="20" as="geometry" />
        </mxCell>
        <mxCell id="XZQz7K7nDMC5S0IeOJKs-80" value="t" style="shape=partialRectangle;html=1;whiteSpace=wrap;connectable=0;overflow=hidden;fillColor=none;top=0;left=0;bottom=0;right=0;fontSize=10.5;" vertex="1" parent="XZQz7K7nDMC5S0IeOJKs-72">
          <mxGeometry x="140" width="20" height="20" as="geometry" />
        </mxCell>
        <mxCell id="XZQz7K7nDMC5S0IeOJKs-81" value="t" style="shape=partialRectangle;html=1;whiteSpace=wrap;connectable=0;overflow=hidden;fillColor=none;top=0;left=0;bottom=0;right=0;fontSize=10.5;" vertex="1" parent="XZQz7K7nDMC5S0IeOJKs-72">
          <mxGeometry x="160" width="20" height="20" as="geometry" />
        </mxCell>
        <mxCell id="XZQz7K7nDMC5S0IeOJKs-82" value="e" style="shape=partialRectangle;html=1;whiteSpace=wrap;connectable=0;overflow=hidden;fillColor=none;top=0;left=0;bottom=0;right=0;fontSize=10.5;" vertex="1" parent="XZQz7K7nDMC5S0IeOJKs-72">
          <mxGeometry x="180" width="20" height="20" as="geometry" />
        </mxCell>
        <mxCell id="XZQz7K7nDMC5S0IeOJKs-83" value="" style="endArrow=classic;html=1;" edge="1" parent="1">
          <mxGeometry width="50" height="50" relative="1" as="geometry">
            <mxPoint x="589.66" y="289.99999999999994" as="sourcePoint" />
            <mxPoint x="589.66" y="313.71" as="targetPoint" />
          </mxGeometry>
        </mxCell>
        <mxCell id="XZQz7K7nDMC5S0IeOJKs-84" value="state" style="text;html=1;align=center;verticalAlign=middle;resizable=0;points=[];autosize=1;fontSize=10.5;" vertex="1" parent="1">
          <mxGeometry x="570" y="259.88" width="40" height="20" as="geometry" />
        </mxCell>
        <mxCell id="XZQz7K7nDMC5S0IeOJKs-86" value="" style="endArrow=classic;html=1;" edge="1" parent="1">
          <mxGeometry width="50" height="50" relative="1" as="geometry">
            <mxPoint x="589.6599999999999" y="231.72" as="sourcePoint" />
            <mxPoint x="589.6599999999999" y="255.42999999999992" as="targetPoint" />
          </mxGeometry>
        </mxCell>
        <mxCell id="XZQz7K7nDMC5S0IeOJKs-87" value="&lt;font style=&quot;font-size: 10.5px&quot;&gt;转录&lt;/font&gt;" style="text;html=1;align=center;verticalAlign=middle;resizable=0;points=[];autosize=1;fontSize=10.5;" vertex="1" parent="1">
          <mxGeometry x="570.0042857142857" y="161.70062500000003" width="40" height="20" as="geometry" />
        </mxCell>
        <mxCell id="XZQz7K7nDMC5S0IeOJKs-88" value="&lt;font style=&quot;font-size: 10.5px&quot;&gt;输出&lt;/font&gt;" style="text;html=1;align=center;verticalAlign=middle;resizable=0;points=[];autosize=1;fontSize=10.5;" vertex="1" parent="1">
          <mxGeometry x="600.0042857142857" y="290.000625" width="40" height="20" as="geometry" />
        </mxCell>
      </root>
    </mxGraphModel>
  </diagram>
</mxfile>
